# MagicaVoxel @ Ephtracy

# material
mtllib Computer.mtl
usemtl palette

# normals
vn -1 0 0
vn 1 0 0
vn 0 0 1
vn 0 0 -1
vn 0 -1 0
vn 0 1 0

# texcoords
vt 0.908203 0.5
vt 0.912109 0.5
vt 0.939453 0.5
vt 0.947266 0.5
vt 0.970703 0.5
vt 0.974609 0.5
vt 0.978516 0.5

# verts
v -20 0 9
v -20 0 -19
v -20 1 9
v -20 1 -19
v -20 21 -3
v -20 21 -8
v -20 49 -3
v -20 49 -8
v -19 0 28
v -19 0 12
v -19 0 10
v -19 0 9
v -19 0 -19
v -19 0 -20
v -19 1 28
v -19 1 12
v -19 1 10
v -19 1 9
v -19 1 -19
v -19 1 -20
v -19 22 -2
v -19 22 -3
v -19 22 -8
v -19 22 -9
v -19 48 -2
v -19 48 -3
v -19 48 -8
v -19 48 -9
v -18 1 27
v -18 1 23
v -18 1 22
v -18 1 18
v -18 1 17
v -18 1 13
v -18 1 8
v -18 1 -18
v -18 2 27
v -18 2 23
v -18 2 22
v -18 2 18
v -18 2 17
v -18 2 13
v -18 11 8
v -18 11 -18
v -15 1 9
v -15 1 8
v -15 1 -18
v -15 1 -19
v -15 11 8
v -15 11 -18
v -15 12 9
v -15 12 -19
v -10 1 27
v -10 1 23
v -10 1 22
v -10 1 18
v -10 1 17
v -10 1 13
v -10 2 27
v -10 2 23
v -10 2 22
v -10 2 18
v -10 2 17
v -10 2 13
v -10 12 -3
v -10 12 -16
v -10 13 -3
v -10 13 -16
v -9 13 -4
v -9 13 -15
v -9 14 -4
v -9 14 -15
v -4 14 -7
v -4 14 -13
v -4 21 -7
v -4 21 -8
v -4 22 -8
v -4 22 -9
v -4 37 -9
v -4 37 -13
v -2 1 27
v -2 1 23
v -2 1 22
v -2 1 18
v -2 1 17
v -2 1 13
v -2 2 27
v -2 2 23
v -2 2 22
v -2 2 18
v -2 2 17
v -2 2 13
v 5 1 27
v 5 1 23
v 5 1 22
v 5 1 18
v 5 1 17
v 5 1 13
v 5 2 27
v 5 2 23
v 5 2 22
v 5 2 18
v 5 2 17
v 5 2 13
v 9 1 27
v 9 1 23
v 9 2 27
v 9 2 23
v 12 1 23
v 12 1 18
v 12 2 23
v 12 2 18
v 13 1 17
v 13 1 15
v 13 1 14
v 13 1 13
v 13 2 17
v 13 2 15
v 13 2 14
v 13 2 13
v 16 1 14
v 16 1 13
v 16 2 14
v 16 2 13
v 16 25 -3
v 16 25 -6
v 16 45 -3
v 16 45 -6
v 18 23 -2
v 18 23 -3
v 18 47 -2
v 18 47 -3
v -18 23 -2
v -18 23 -3
v -18 47 -2
v -18 47 -3
v -16 25 -3
v -16 25 -6
v -16 45 -3
v -16 45 -6
v -11 1 27
v -11 1 23
v -11 1 22
v -11 1 18
v -11 1 17
v -11 1 13
v -11 2 27
v -11 2 23
v -11 2 22
v -11 2 18
v -11 2 17
v -11 2 13
v -3 1 27
v -3 1 23
v -3 1 22
v -3 1 18
v -3 1 17
v -3 1 13
v -3 2 27
v -3 2 23
v -3 2 22
v -3 2 18
v -3 2 17
v -3 2 13
v 4 1 27
v 4 1 23
v 4 1 22
v 4 1 18
v 4 1 17
v 4 1 13
v 4 2 27
v 4 2 23
v 4 2 22
v 4 2 18
v 4 2 17
v 4 2 13
v 4 14 -7
v 4 14 -13
v 4 21 -7
v 4 21 -8
v 4 22 -8
v 4 22 -9
v 4 37 -9
v 4 37 -13
v 8 1 27
v 8 1 23
v 8 2 27
v 8 2 23
v 9 13 -4
v 9 13 -15
v 9 14 -4
v 9 14 -15
v 10 12 -3
v 10 12 -16
v 10 13 -3
v 10 13 -16
v 11 1 22
v 11 1 18
v 11 1 17
v 11 1 13
v 11 2 22
v 11 2 18
v 11 2 17
v 11 2 13
v 14 1 14
v 14 1 13
v 14 2 14
v 14 2 13
v 15 1 9
v 15 1 8
v 15 1 -18
v 15 1 -19
v 15 11 8
v 15 11 -18
v 15 12 9
v 15 12 -19
v 17 1 27
v 17 1 18
v 17 1 17
v 17 1 15
v 17 1 14
v 17 1 13
v 17 2 27
v 17 2 18
v 17 2 17
v 17 2 15
v 17 2 14
v 17 2 13
v 18 1 8
v 18 1 -18
v 18 11 8
v 18 11 -18
v 19 0 28
v 19 0 12
v 19 0 10
v 19 0 9
v 19 0 -19
v 19 0 -20
v 19 1 28
v 19 1 12
v 19 1 10
v 19 1 9
v 19 1 -19
v 19 1 -20
v 19 22 -2
v 19 22 -3
v 19 22 -8
v 19 22 -9
v 19 48 -2
v 19 48 -3
v 19 48 -8
v 19 48 -9
v 20 0 9
v 20 0 -19
v 20 1 9
v 20 1 -19
v 20 21 -3
v 20 21 -8
v 20 49 -3
v 20 49 -8
v -19 0 28
v -19 1 28
v 19 0 28
v 19 1 28
v -18 1 27
v -18 2 27
v -11 1 27
v -11 2 27
v -10 1 27
v -10 2 27
v -3 1 27
v -3 2 27
v -2 1 27
v -2 2 27
v 4 1 27
v 4 2 27
v 5 1 27
v 5 2 27
v 8 1 27
v 8 2 27
v 9 1 27
v 9 2 27
v 17 1 27
v 17 2 27
v -18 1 22
v -18 2 22
v -11 1 22
v -11 2 22
v -10 1 22
v -10 2 22
v -3 1 22
v -3 2 22
v -2 1 22
v -2 2 22
v 4 1 22
v 4 2 22
v 5 1 22
v 5 2 22
v 11 1 22
v 11 2 22
v -18 1 17
v -18 2 17
v -11 1 17
v -11 2 17
v -10 1 17
v -10 2 17
v -3 1 17
v -3 2 17
v -2 1 17
v -2 2 17
v 4 1 17
v 4 2 17
v 5 1 17
v 5 2 17
v 11 1 17
v 11 2 17
v 13 1 17
v 13 2 17
v 17 1 17
v 17 2 17
v 13 1 14
v 13 2 14
v 14 1 14
v 14 2 14
v 16 1 14
v 16 2 14
v 17 1 14
v 17 2 14
v -19 0 10
v -19 1 10
v 19 0 10
v 19 1 10
v -20 0 9
v -20 1 9
v -19 0 9
v -19 1 9
v -15 1 9
v -15 12 9
v -14 5 9
v -14 6 9
v -14 7 9
v -14 10 9
v -13 7 9
v -13 10 9
v -12 7 9
v -12 10 9
v -11 5 9
v -11 6 9
v -11 7 9
v -11 10 9
v -8 7 9
v -8 10 9
v -7 5 9
v -7 6 9
v 6 5 9
v 6 6 9
v 7 7 9
v 7 10 9
v 10 8 9
v 10 11 9
v 13 8 9
v 13 11 9
v 15 1 9
v 15 12 9
v 19 0 9
v 19 1 9
v 20 0 9
v 20 1 9
v -18 1 8
v -18 11 8
v -15 1 8
v -15 11 8
v 15 1 8
v 15 11 8
v 18 1 8
v 18 11 8
v -19 22 -2
v -19 48 -2
v -18 23 -2
v -18 47 -2
v 18 23 -2
v 18 47 -2
v 19 22 -2
v 19 48 -2
v -20 21 -3
v -20 49 -3
v -19 22 -3
v -19 48 -3
v -18 23 -3
v -18 47 -3
v -16 25 -3
v -16 45 -3
v -10 12 -3
v -10 13 -3
v 10 12 -3
v 10 13 -3
v 15 23 -3
v 15 24 -3
v 16 23 -3
v 16 24 -3
v 16 25 -3
v 16 45 -3
v 18 23 -3
v 18 47 -3
v 19 22 -3
v 19 48 -3
v 20 21 -3
v 20 49 -3
v -9 13 -4
v -9 14 -4
v 9 13 -4
v 9 14 -4
v -16 25 -6
v -16 45 -6
v 16 25 -6
v 16 45 -6
v -4 14 -7
v -4 21 -7
v 4 14 -7
v 4 21 -7
v -18 1 23
v -18 2 23
v -11 1 23
v -11 2 23
v -10 1 23
v -10 2 23
v -3 1 23
v -3 2 23
v -2 1 23
v -2 2 23
v 4 1 23
v 4 2 23
v 5 1 23
v 5 2 23
v 8 1 23
v 8 2 23
v 9 1 23
v 9 2 23
v 12 1 23
v 12 2 23
v -18 1 18
v -18 2 18
v -11 1 18
v -11 2 18
v -10 1 18
v -10 2 18
v -3 1 18
v -3 2 18
v -2 1 18
v -2 2 18
v 4 1 18
v 4 2 18
v 5 1 18
v 5 2 18
v 11 1 18
v 11 2 18
v 12 1 18
v 12 2 18
v 17 1 18
v 17 2 18
v 13 1 15
v 13 2 15
v 17 1 15
v 17 2 15
v -18 1 13
v -18 2 13
v -11 1 13
v -11 2 13
v -10 1 13
v -10 2 13
v -3 1 13
v -3 2 13
v -2 1 13
v -2 2 13
v 4 1 13
v 4 2 13
v 5 1 13
v 5 2 13
v 11 1 13
v 11 2 13
v 13 1 13
v 13 2 13
v 14 1 13
v 14 2 13
v 16 1 13
v 16 2 13
v 17 1 13
v 17 2 13
v -19 0 12
v -19 1 12
v 19 0 12
v 19 1 12
v -20 21 -8
v -20 49 -8
v -19 22 -8
v -19 48 -8
v -4 21 -8
v -4 22 -8
v 4 21 -8
v 4 22 -8
v 19 22 -8
v 19 48 -8
v 20 21 -8
v 20 49 -8
v -19 22 -9
v -19 48 -9
v -4 22 -9
v -4 37 -9
v 4 22 -9
v 4 37 -9
v 19 22 -9
v 19 48 -9
v -4 14 -13
v -4 37 -13
v 4 14 -13
v 4 37 -13
v -9 13 -15
v -9 14 -15
v 9 13 -15
v 9 14 -15
v -10 12 -16
v -10 13 -16
v 10 12 -16
v 10 13 -16
v -18 1 -18
v -18 11 -18
v -15 1 -18
v -15 11 -18
v 15 1 -18
v 15 11 -18
v 18 1 -18
v 18 11 -18
v -20 0 -19
v -20 1 -19
v -19 0 -19
v -19 1 -19
v -15 1 -19
v -15 12 -19
v 15 1 -19
v 15 12 -19
v 19 0 -19
v 19 1 -19
v 20 0 -19
v 20 1 -19
v -19 0 -20
v -19 1 -20
v 19 0 -20
v 19 1 -20
v -19 0 28
v 19 0 28
v -19 0 12
v 19 0 12
v -19 0 10
v 19 0 10
v -20 0 9
v -19 0 9
v 19 0 9
v 20 0 9
v -20 0 -19
v -19 0 -19
v 19 0 -19
v 20 0 -19
v -19 0 -20
v 19 0 -20
v -20 21 -3
v 20 21 -3
v -4 21 -7
v 4 21 -7
v -20 21 -8
v -4 21 -8
v 4 21 -8
v 20 21 -8
v -19 22 -2
v 19 22 -2
v -19 22 -3
v 19 22 -3
v -19 22 -8
v -4 22 -8
v 4 22 -8
v 19 22 -8
v -19 22 -9
v -4 22 -9
v 4 22 -9
v 19 22 -9
v -16 45 -3
v 16 45 -3
v -16 45 -6
v 16 45 -6
v -18 47 -2
v 18 47 -2
v -18 47 -3
v 18 47 -3
v -19 1 28
v 19 1 28
v -18 1 27
v -11 1 27
v -10 1 27
v -3 1 27
v -2 1 27
v 4 1 27
v 5 1 27
v 8 1 27
v 9 1 27
v 17 1 27
v -18 1 23
v -11 1 23
v -10 1 23
v -3 1 23
v -2 1 23
v 4 1 23
v 5 1 23
v 8 1 23
v 9 1 23
v 12 1 23
v -18 1 22
v -11 1 22
v -10 1 22
v -3 1 22
v -2 1 22
v 4 1 22
v 5 1 22
v 11 1 22
v -18 1 18
v -11 1 18
v -10 1 18
v -3 1 18
v -2 1 18
v 4 1 18
v 5 1 18
v 11 1 18
v 12 1 18
v 17 1 18
v -18 1 17
v -11 1 17
v -10 1 17
v -3 1 17
v -2 1 17
v 4 1 17
v 5 1 17
v 11 1 17
v 13 1 17
v 17 1 17
v 13 1 15
v 17 1 15
v 13 1 14
v 14 1 14
v 16 1 14
v 17 1 14
v -18 1 13
v -11 1 13
v -10 1 13
v -3 1 13
v -2 1 13
v 4 1 13
v 5 1 13
v 11 1 13
v 13 1 13
v 14 1 13
v 16 1 13
v 17 1 13
v -19 1 12
v 19 1 12
v -19 1 10
v 19 1 10
v -20 1 9
v -19 1 9
v -15 1 9
v 15 1 9
v 19 1 9
v 20 1 9
v -18 1 8
v -15 1 8
v 15 1 8
v 18 1 8
v -18 1 -18
v -15 1 -18
v 15 1 -18
v 18 1 -18
v -20 1 -19
v -19 1 -19
v -15 1 -19
v 15 1 -19
v 19 1 -19
v 20 1 -19
v -19 1 -20
v 19 1 -20
v -18 2 27
v -11 2 27
v -10 2 27
v -3 2 27
v -2 2 27
v 4 2 27
v 5 2 27
v 8 2 27
v 9 2 27
v 17 2 27
v -18 2 23
v -11 2 23
v -10 2 23
v -3 2 23
v -2 2 23
v 4 2 23
v 5 2 23
v 8 2 23
v 9 2 23
v 12 2 23
v -18 2 22
v -11 2 22
v -10 2 22
v -3 2 22
v -2 2 22
v 4 2 22
v 5 2 22
v 11 2 22
v -18 2 18
v -11 2 18
v -10 2 18
v -3 2 18
v -2 2 18
v 4 2 18
v 5 2 18
v 11 2 18
v 12 2 18
v 17 2 18
v -18 2 17
v -11 2 17
v -10 2 17
v -3 2 17
v -2 2 17
v 4 2 17
v 5 2 17
v 11 2 17
v 13 2 17
v 17 2 17
v 13 2 15
v 17 2 15
v 13 2 14
v 14 2 14
v 16 2 14
v 17 2 14
v -18 2 13
v -11 2 13
v -10 2 13
v -3 2 13
v -2 2 13
v 4 2 13
v 5 2 13
v 11 2 13
v 13 2 13
v 14 2 13
v 16 2 13
v 17 2 13
v -18 11 8
v -15 11 8
v 15 11 8
v 18 11 8
v -18 11 -18
v -15 11 -18
v 15 11 -18
v 18 11 -18
v -15 12 9
v 15 12 9
v -10 12 -3
v 10 12 -3
v -10 12 -16
v 10 12 -16
v -15 12 -19
v 15 12 -19
v -10 13 -3
v 10 13 -3
v -9 13 -4
v 9 13 -4
v -9 13 -15
v 9 13 -15
v -10 13 -16
v 10 13 -16
v -9 14 -4
v 9 14 -4
v -4 14 -7
v 4 14 -7
v -4 14 -13
v 4 14 -13
v -9 14 -15
v 9 14 -15
v -18 23 -2
v 18 23 -2
v -18 23 -3
v 15 23 -3
v 16 23 -3
v 18 23 -3
v -16 25 -3
v 16 25 -3
v -16 25 -6
v 16 25 -6
v -4 37 -9
v 4 37 -9
v -4 37 -13
v 4 37 -13
v -19 48 -2
v 19 48 -2
v -19 48 -3
v 19 48 -3
v -19 48 -8
v 19 48 -8
v -19 48 -9
v 19 48 -9
v -20 49 -3
v 20 49 -3
v -20 49 -8
v 20 49 -8

# faces
f 3/5/1 2/5/1 1/5/1
f 4/5/1 2/5/1 3/5/1
f 7/7/1 6/7/1 5/7/1
f 8/7/1 6/7/1 7/7/1
f 15/5/1 10/5/1 9/5/1
f 16/5/1 10/5/1 15/5/1
f 17/5/1 12/5/1 11/5/1
f 18/5/1 12/5/1 17/5/1
f 19/5/1 14/5/1 13/5/1
f 20/5/1 14/5/1 19/5/1
f 25/7/1 22/7/1 21/7/1
f 26/7/1 22/7/1 25/7/1
f 27/7/1 24/7/1 23/7/1
f 28/7/1 24/7/1 27/7/1
f 37/2/1 30/2/1 29/2/1
f 38/2/1 30/2/1 37/2/1
f 39/2/1 32/2/1 31/2/1
f 40/2/1 32/2/1 39/2/1
f 41/2/1 34/2/1 33/2/1
f 42/2/1 34/2/1 41/2/1
f 43/2/1 36/2/1 35/2/1
f 44/2/1 36/2/1 43/2/1
f 49/5/1 46/5/1 45/5/1
f 50/5/1 48/5/1 47/5/1
f 51/5/1 49/5/1 45/5/1
f 51/5/1 50/5/1 49/5/1
f 52/5/1 48/5/1 50/5/1
f 52/5/1 50/5/1 51/5/1
f 59/2/1 54/2/1 53/2/1
f 60/2/1 54/2/1 59/2/1
f 61/2/1 56/2/1 55/2/1
f 62/2/1 56/2/1 61/2/1
f 63/2/1 58/2/1 57/2/1
f 64/2/1 58/2/1 63/2/1
f 67/7/1 66/7/1 65/7/1
f 68/7/1 66/7/1 67/7/1
f 71/7/1 70/7/1 69/7/1
f 72/7/1 70/7/1 71/7/1
f 75/2/1 74/2/1 73/2/1
f 76/2/1 74/2/1 75/2/1
f 77/2/1 74/2/1 76/2/1
f 78/2/1 74/2/1 77/2/1
f 79/2/1 74/2/1 78/2/1
f 80/2/1 74/2/1 79/2/1
f 87/2/1 82/2/1 81/2/1
f 88/2/1 82/2/1 87/2/1
f 89/2/1 84/2/1 83/2/1
f 90/2/1 84/2/1 89/2/1
f 91/2/1 86/2/1 85/2/1
f 92/2/1 86/2/1 91/2/1
f 99/2/1 94/2/1 93/2/1
f 100/2/1 94/2/1 99/2/1
f 101/2/1 96/2/1 95/2/1
f 102/2/1 96/2/1 101/2/1
f 103/2/1 98/2/1 97/2/1
f 104/2/1 98/2/1 103/2/1
f 107/2/1 106/2/1 105/2/1
f 108/2/1 106/2/1 107/2/1
f 111/2/1 110/2/1 109/2/1
f 112/2/1 110/2/1 111/2/1
f 117/2/1 114/2/1 113/2/1
f 118/2/1 114/2/1 117/2/1
f 119/3/1 116/3/1 115/3/1
f 120/3/1 116/3/1 119/3/1
f 123/1/1 122/1/1 121/1/1
f 124/1/1 122/1/1 123/1/1
f 127/7/1 126/7/1 125/7/1
f 128/7/1 126/7/1 127/7/1
f 131/7/1 130/7/1 129/7/1
f 132/7/1 130/7/1 131/7/1
f 133/7/2 134/7/2 135/7/2
f 135/7/2 134/7/2 136/7/2
f 137/7/2 138/7/2 139/7/2
f 139/7/2 138/7/2 140/7/2
f 141/2/2 142/2/2 147/2/2
f 147/2/2 142/2/2 148/2/2
f 143/2/2 144/2/2 149/2/2
f 149/2/2 144/2/2 150/2/2
f 145/2/2 146/2/2 151/2/2
f 151/2/2 146/2/2 152/2/2
f 153/2/2 154/2/2 159/2/2
f 159/2/2 154/2/2 160/2/2
f 155/2/2 156/2/2 161/2/2
f 161/2/2 156/2/2 162/2/2
f 157/2/2 158/2/2 163/2/2
f 163/2/2 158/2/2 164/2/2
f 165/2/2 166/2/2 171/2/2
f 171/2/2 166/2/2 172/2/2
f 167/2/2 168/2/2 173/2/2
f 173/2/2 168/2/2 174/2/2
f 169/2/2 170/2/2 175/2/2
f 175/2/2 170/2/2 176/2/2
f 177/2/2 178/2/2 179/2/2
f 179/2/2 178/2/2 180/2/2
f 180/2/2 178/2/2 181/2/2
f 181/2/2 178/2/2 182/2/2
f 182/2/2 178/2/2 183/2/2
f 183/2/2 178/2/2 184/2/2
f 185/2/2 186/2/2 187/2/2
f 187/2/2 186/2/2 188/2/2
f 189/7/2 190/7/2 191/7/2
f 191/7/2 190/7/2 192/7/2
f 193/7/2 194/7/2 195/7/2
f 195/7/2 194/7/2 196/7/2
f 197/2/2 198/2/2 201/2/2
f 201/2/2 198/2/2 202/2/2
f 199/2/2 200/2/2 203/2/2
f 203/2/2 200/2/2 204/2/2
f 205/3/2 206/3/2 207/3/2
f 207/3/2 206/3/2 208/3/2
f 209/5/2 210/5/2 213/5/2
f 211/5/2 212/5/2 214/5/2
f 209/5/2 213/5/2 215/5/2
f 213/5/2 214/5/2 215/5/2
f 214/5/2 212/5/2 216/5/2
f 215/5/2 214/5/2 216/5/2
f 217/2/2 218/2/2 223/2/2
f 223/2/2 218/2/2 224/2/2
f 219/2/2 220/2/2 225/2/2
f 225/2/2 220/2/2 226/2/2
f 221/1/2 222/1/2 227/1/2
f 227/1/2 222/1/2 228/1/2
f 229/2/2 230/2/2 231/2/2
f 231/2/2 230/2/2 232/2/2
f 233/5/2 234/5/2 239/5/2
f 239/5/2 234/5/2 240/5/2
f 235/5/2 236/5/2 241/5/2
f 241/5/2 236/5/2 242/5/2
f 237/5/2 238/5/2 243/5/2
f 243/5/2 238/5/2 244/5/2
f 245/7/2 246/7/2 249/7/2
f 249/7/2 246/7/2 250/7/2
f 247/7/2 248/7/2 251/7/2
f 251/7/2 248/7/2 252/7/2
f 253/5/2 254/5/2 255/5/2
f 255/5/2 254/5/2 256/5/2
f 257/7/2 258/7/2 259/7/2
f 259/7/2 258/7/2 260/7/2
f 263/5/3 262/5/3 261/5/3
f 264/5/3 262/5/3 263/5/3
f 267/2/3 266/2/3 265/2/3
f 268/2/3 266/2/3 267/2/3
f 271/2/3 270/2/3 269/2/3
f 272/2/3 270/2/3 271/2/3
f 275/2/3 274/2/3 273/2/3
f 276/2/3 274/2/3 275/2/3
f 279/2/3 278/2/3 277/2/3
f 280/2/3 278/2/3 279/2/3
f 283/2/3 282/2/3 281/2/3
f 284/2/3 282/2/3 283/2/3
f 287/2/3 286/2/3 285/2/3
f 288/2/3 286/2/3 287/2/3
f 291/2/3 290/2/3 289/2/3
f 292/2/3 290/2/3 291/2/3
f 295/2/3 294/2/3 293/2/3
f 296/2/3 294/2/3 295/2/3
f 299/2/3 298/2/3 297/2/3
f 300/2/3 298/2/3 299/2/3
f 303/2/3 302/2/3 301/2/3
f 304/2/3 302/2/3 303/2/3
f 307/2/3 306/2/3 305/2/3
f 308/2/3 306/2/3 307/2/3
f 311/2/3 310/2/3 309/2/3
f 312/2/3 310/2/3 311/2/3
f 315/2/3 314/2/3 313/2/3
f 316/2/3 314/2/3 315/2/3
f 319/2/3 318/2/3 317/2/3
f 320/2/3 318/2/3 319/2/3
f 323/3/3 322/3/3 321/3/3
f 324/3/3 322/3/3 323/3/3
f 327/1/3 326/1/3 325/1/3
f 328/1/3 326/1/3 327/1/3
f 331/5/3 330/5/3 329/5/3
f 332/5/3 330/5/3 331/5/3
f 335/5/3 334/5/3 333/5/3
f 336/5/3 334/5/3 335/5/3
f 339/5/3 338/5/3 337/5/3
f 340/5/3 338/5/3 339/5/3
f 341/5/3 338/5/3 340/5/3
f 342/5/3 338/5/3 341/5/3
f 343/5/3 341/5/3 340/5/3
f 343/1/3 342/1/3 341/1/3
f 344/5/3 338/5/3 342/5/3
f 344/1/3 342/1/3 343/1/3
f 345/5/3 343/5/3 340/5/3
f 345/5/3 344/5/3 343/5/3
f 346/5/3 338/5/3 344/5/3
f 346/5/3 344/5/3 345/5/3
f 347/5/3 339/5/3 337/5/3
f 347/6/3 340/6/3 339/6/3
f 348/5/3 345/5/3 340/5/3
f 348/6/3 340/6/3 347/6/3
f 349/6/3 346/6/3 345/6/3
f 349/5/3 345/5/3 348/5/3
f 350/5/3 338/5/3 346/5/3
f 350/6/3 346/6/3 349/6/3
f 351/5/3 349/5/3 348/5/3
f 351/5/3 348/5/3 347/5/3
f 351/5/3 350/5/3 349/5/3
f 352/5/3 338/5/3 350/5/3
f 352/5/3 350/5/3 351/5/3
f 353/5/3 351/5/3 347/5/3
f 353/5/3 347/5/3 337/5/3
f 354/5/3 351/5/3 353/5/3
f 355/5/3 353/5/3 337/5/3
f 355/6/3 354/6/3 353/6/3
f 356/5/3 351/5/3 354/5/3
f 356/6/3 354/6/3 355/6/3
f 357/6/3 352/6/3 351/6/3
f 357/5/3 351/5/3 356/5/3
f 357/5/3 356/5/3 355/5/3
f 358/5/3 338/5/3 352/5/3
f 358/6/3 352/6/3 357/6/3
f 359/5/3 358/5/3 357/5/3
f 360/5/3 338/5/3 358/5/3
f 360/5/3 358/5/3 359/5/3
f 361/5/3 359/5/3 357/5/3
f 361/6/3 360/6/3 359/6/3
f 362/5/3 338/5/3 360/5/3
f 362/6/3 360/6/3 361/6/3
f 363/5/3 357/5/3 355/5/3
f 363/5/3 355/5/3 337/5/3
f 363/5/3 362/5/3 361/5/3
f 363/5/3 361/5/3 357/5/3
f 364/5/3 338/5/3 362/5/3
f 364/5/3 362/5/3 363/5/3
f 367/5/3 366/5/3 365/5/3
f 368/5/3 366/5/3 367/5/3
f 371/2/3 370/2/3 369/2/3
f 372/2/3 370/2/3 371/2/3
f 375/2/3 374/2/3 373/2/3
f 376/2/3 374/2/3 375/2/3
f 379/7/3 378/7/3 377/7/3
f 380/7/3 378/7/3 379/7/3
f 381/7/3 379/7/3 377/7/3
f 382/7/3 378/7/3 380/7/3
f 383/7/3 381/7/3 377/7/3
f 383/7/3 382/7/3 381/7/3
f 384/7/3 378/7/3 382/7/3
f 384/7/3 382/7/3 383/7/3
f 387/7/3 386/7/3 385/7/3
f 388/7/3 386/7/3 387/7/3
f 391/7/3 390/7/3 389/7/3
f 392/7/3 390/7/3 391/7/3
f 395/7/3 394/7/3 393/7/3
f 396/7/3 394/7/3 395/7/3
f 397/7/3 391/7/3 389/7/3
f 398/7/3 391/7/3 397/7/3
f 399/1/3 398/1/3 397/1/3
f 400/7/3 391/7/3 398/7/3
f 400/1/3 398/1/3 399/1/3
f 401/7/3 391/7/3 400/7/3
f 402/7/3 390/7/3 392/7/3
f 403/7/3 401/7/3 400/7/3
f 403/7/3 402/7/3 401/7/3
f 403/7/3 400/7/3 399/7/3
f 404/7/3 390/7/3 402/7/3
f 404/7/3 402/7/3 403/7/3
f 405/7/3 387/7/3 385/7/3
f 406/7/3 386/7/3 388/7/3
f 407/7/3 405/7/3 385/7/3
f 407/7/3 406/7/3 405/7/3
f 408/7/3 386/7/3 406/7/3
f 408/7/3 406/7/3 407/7/3
f 411/7/3 410/7/3 409/7/3
f 412/7/3 410/7/3 411/7/3
f 415/4/3 414/4/3 413/4/3
f 416/4/3 414/4/3 415/4/3
f 419/2/3 418/2/3 417/2/3
f 420/2/3 418/2/3 419/2/3
f 421/2/4 422/2/4 423/2/4
f 423/2/4 422/2/4 424/2/4
f 425/2/4 426/2/4 427/2/4
f 427/2/4 426/2/4 428/2/4
f 429/2/4 430/2/4 431/2/4
f 431/2/4 430/2/4 432/2/4
f 433/2/4 434/2/4 435/2/4
f 435/2/4 434/2/4 436/2/4
f 437/2/4 438/2/4 439/2/4
f 439/2/4 438/2/4 440/2/4
f 441/2/4 442/2/4 443/2/4
f 443/2/4 442/2/4 444/2/4
f 445/2/4 446/2/4 447/2/4
f 447/2/4 446/2/4 448/2/4
f 449/2/4 450/2/4 451/2/4
f 451/2/4 450/2/4 452/2/4
f 453/2/4 454/2/4 455/2/4
f 455/2/4 454/2/4 456/2/4
f 457/2/4 458/2/4 459/2/4
f 459/2/4 458/2/4 460/2/4
f 461/2/4 462/2/4 463/2/4
f 463/2/4 462/2/4 464/2/4
f 465/2/4 466/2/4 467/2/4
f 467/2/4 466/2/4 468/2/4
f 469/2/4 470/2/4 471/2/4
f 471/2/4 470/2/4 472/2/4
f 473/2/4 474/2/4 475/2/4
f 475/2/4 474/2/4 476/2/4
f 477/2/4 478/2/4 479/2/4
f 479/2/4 478/2/4 480/2/4
f 481/3/4 482/3/4 483/3/4
f 483/3/4 482/3/4 484/3/4
f 485/1/4 486/1/4 487/1/4
f 487/1/4 486/1/4 488/1/4
f 489/5/4 490/5/4 491/5/4
f 491/5/4 490/5/4 492/5/4
f 493/7/4 494/7/4 495/7/4
f 495/7/4 494/7/4 496/7/4
f 493/7/4 495/7/4 497/7/4
f 497/7/4 495/7/4 498/7/4
f 499/7/4 500/7/4 501/7/4
f 496/7/4 494/7/4 502/7/4
f 499/7/4 501/7/4 503/7/4
f 501/7/4 502/7/4 503/7/4
f 502/7/4 494/7/4 504/7/4
f 503/7/4 502/7/4 504/7/4
f 505/7/4 506/7/4 507/7/4
f 507/7/4 506/7/4 508/7/4
f 508/7/4 506/7/4 510/7/4
f 509/7/4 510/7/4 511/7/4
f 510/7/4 506/7/4 512/7/4
f 511/7/4 510/7/4 512/7/4
f 513/2/4 514/2/4 515/2/4
f 515/2/4 514/2/4 516/2/4
f 517/7/4 518/7/4 519/7/4
f 519/7/4 518/7/4 520/7/4
f 521/7/4 522/7/4 523/7/4
f 523/7/4 522/7/4 524/7/4
f 525/2/4 526/2/4 527/2/4
f 527/2/4 526/2/4 528/2/4
f 529/2/4 530/2/4 531/2/4
f 531/2/4 530/2/4 532/2/4
f 533/5/4 534/5/4 535/5/4
f 535/5/4 534/5/4 536/5/4
f 537/5/4 538/5/4 539/5/4
f 539/5/4 538/5/4 540/5/4
f 541/5/4 542/5/4 543/5/4
f 543/5/4 542/5/4 544/5/4
f 545/5/4 546/5/4 547/5/4
f 547/5/4 546/5/4 548/5/4
f 551/5/5 550/5/5 549/5/5
f 552/5/5 550/5/5 551/5/5
f 556/5/5 554/5/5 553/5/5
f 557/5/5 554/5/5 556/5/5
f 559/5/5 557/5/5 556/5/5
f 559/5/5 558/5/5 557/5/5
f 559/5/5 556/5/5 555/5/5
f 560/5/5 558/5/5 559/5/5
f 561/5/5 558/5/5 560/5/5
f 562/5/5 558/5/5 561/5/5
f 563/5/5 561/5/5 560/5/5
f 564/5/5 561/5/5 563/5/5
f 567/7/5 566/7/5 565/7/5
f 568/7/5 566/7/5 567/7/5
f 569/7/5 567/7/5 565/7/5
f 570/7/5 567/7/5 569/7/5
f 571/7/5 566/7/5 568/7/5
f 572/7/5 566/7/5 571/7/5
f 575/7/5 574/7/5 573/7/5
f 576/7/5 574/7/5 575/7/5
f 581/7/5 578/7/5 577/7/5
f 582/7/5 578/7/5 581/7/5
f 583/7/5 580/7/5 579/7/5
f 584/7/5 580/7/5 583/7/5
f 587/7/5 586/7/5 585/7/5
f 588/7/5 586/7/5 587/7/5
f 591/7/5 590/7/5 589/7/5
f 592/7/5 590/7/5 591/7/5
f 593/5/6 594/5/6 595/5/6
f 595/5/6 594/5/6 596/5/6
f 596/5/6 594/5/6 597/5/6
f 597/5/6 594/5/6 598/5/6
f 598/5/6 594/5/6 599/5/6
f 599/5/6 594/5/6 600/5/6
f 600/5/6 594/5/6 601/5/6
f 601/5/6 594/5/6 602/5/6
f 602/5/6 594/5/6 603/5/6
f 603/5/6 594/5/6 604/5/6
f 593/5/6 595/5/6 605/5/6
f 596/5/6 597/5/6 606/5/6
f 606/5/6 597/5/6 607/5/6
f 598/5/6 599/5/6 608/5/6
f 608/5/6 599/5/6 609/5/6
f 600/5/6 601/5/6 610/5/6
f 610/5/6 601/5/6 611/5/6
f 602/5/6 603/5/6 612/5/6
f 612/5/6 603/5/6 613/5/6
f 610/5/6 611/5/6 615/5/6
f 613/5/6 614/5/6 615/5/6
f 612/5/6 613/5/6 615/5/6
f 611/5/6 612/5/6 615/5/6
f 593/5/6 605/5/6 615/5/6
f 609/5/6 610/5/6 615/5/6
f 608/5/6 609/5/6 615/5/6
f 607/5/6 608/5/6 615/5/6
f 606/5/6 607/5/6 615/5/6
f 605/5/6 606/5/6 615/5/6
f 615/5/6 614/5/6 616/5/6
f 616/5/6 614/5/6 617/5/6
f 617/5/6 614/5/6 618/5/6
f 618/5/6 614/5/6 619/5/6
f 619/5/6 614/5/6 620/5/6
f 620/5/6 614/5/6 621/5/6
f 621/5/6 614/5/6 622/5/6
f 593/5/6 615/5/6 623/5/6
f 616/5/6 617/5/6 624/5/6
f 624/5/6 617/5/6 625/5/6
f 618/5/6 619/5/6 626/5/6
f 626/5/6 619/5/6 627/5/6
f 620/5/6 621/5/6 628/5/6
f 628/5/6 621/5/6 629/5/6
f 622/5/6 614/5/6 630/5/6
f 630/5/6 614/5/6 631/5/6
f 604/5/6 594/5/6 632/5/6
f 630/5/6 631/5/6 633/5/6
f 631/5/6 632/5/6 633/5/6
f 628/5/6 629/5/6 633/5/6
f 626/5/6 627/5/6 633/5/6
f 629/5/6 630/5/6 633/5/6
f 593/5/6 623/5/6 633/5/6
f 627/5/6 628/5/6 633/5/6
f 624/5/6 625/5/6 633/5/6
f 625/5/6 626/5/6 633/5/6
f 623/5/6 624/5/6 633/5/6
f 633/5/6 632/5/6 634/5/6
f 634/5/6 632/5/6 635/5/6
f 635/5/6 632/5/6 636/5/6
f 636/5/6 632/5/6 637/5/6
f 637/5/6 632/5/6 638/5/6
f 638/5/6 632/5/6 639/5/6
f 639/5/6 632/5/6 640/5/6
f 640/5/6 632/5/6 641/5/6
f 632/5/6 594/5/6 642/5/6
f 641/5/6 632/5/6 642/5/6
f 640/5/6 641/5/6 643/5/6
f 642/5/6 594/5/6 644/5/6
f 640/5/6 643/5/6 645/5/6
f 643/5/6 644/5/6 645/5/6
f 645/5/6 644/5/6 646/5/6
f 646/5/6 644/5/6 647/5/6
f 644/5/6 594/5/6 648/5/6
f 647/5/6 644/5/6 648/5/6
f 593/5/6 633/5/6 649/5/6
f 634/5/6 635/5/6 650/5/6
f 650/5/6 635/5/6 651/5/6
f 636/5/6 637/5/6 652/5/6
f 652/5/6 637/5/6 653/5/6
f 638/5/6 639/5/6 654/5/6
f 654/5/6 639/5/6 655/5/6
f 640/5/6 645/5/6 656/5/6
f 656/5/6 645/5/6 657/5/6
f 646/5/6 647/5/6 658/5/6
f 658/5/6 647/5/6 659/5/6
f 648/5/6 594/5/6 660/5/6
f 656/5/6 657/5/6 661/5/6
f 659/5/6 660/5/6 661/5/6
f 658/5/6 659/5/6 661/5/6
f 652/5/6 653/5/6 661/5/6
f 657/5/6 658/5/6 661/5/6
f 593/5/6 649/5/6 661/5/6
f 655/5/6 656/5/6 661/5/6
f 650/5/6 651/5/6 661/5/6
f 653/5/6 654/5/6 661/5/6
f 654/5/6 655/5/6 661/5/6
f 651/5/6 652/5/6 661/5/6
f 649/5/6 650/5/6 661/5/6
f 660/5/6 594/5/6 662/5/6
f 661/5/6 660/5/6 662/5/6
f 663/5/6 664/5/6 666/5/6
f 666/5/6 664/5/6 667/5/6
f 667/5/6 664/5/6 668/5/6
f 668/5/6 664/5/6 669/5/6
f 665/5/6 666/5/6 671/5/6
f 666/5/6 667/5/6 671/5/6
f 671/5/6 667/5/6 672/5/6
f 668/5/6 669/5/6 673/5/6
f 669/5/6 670/5/6 673/5/6
f 673/5/6 670/5/6 674/5/6
f 665/5/6 671/5/6 675/5/6
f 674/5/6 670/5/6 678/5/6
f 675/5/6 676/5/6 679/5/6
f 665/5/6 675/5/6 679/5/6
f 679/5/6 676/5/6 680/5/6
f 680/5/6 676/5/6 681/5/6
f 677/5/6 678/5/6 682/5/6
f 678/5/6 670/5/6 683/5/6
f 682/5/6 678/5/6 683/5/6
f 683/5/6 670/5/6 684/5/6
f 680/5/6 681/5/6 685/5/6
f 681/5/6 682/5/6 685/5/6
f 682/5/6 683/5/6 685/5/6
f 685/5/6 683/5/6 686/5/6
f 687/2/6 688/2/6 697/2/6
f 697/2/6 688/2/6 698/2/6
f 689/2/6 690/2/6 699/2/6
f 699/2/6 690/2/6 700/2/6
f 691/2/6 692/2/6 701/2/6
f 701/2/6 692/2/6 702/2/6
f 693/2/6 694/2/6 703/2/6
f 703/2/6 694/2/6 704/2/6
f 695/2/6 696/2/6 705/2/6
f 705/2/6 696/2/6 706/2/6
f 707/2/6 708/2/6 715/2/6
f 715/2/6 708/2/6 716/2/6
f 709/2/6 710/2/6 717/2/6
f 717/2/6 710/2/6 718/2/6
f 711/2/6 712/2/6 719/2/6
f 719/2/6 712/2/6 720/2/6
f 713/2/6 714/2/6 721/2/6
f 721/2/6 714/2/6 722/2/6
f 706/2/6 696/2/6 723/2/6
f 723/2/6 696/2/6 724/2/6
f 733/2/6 734/2/6 735/2/6
f 735/2/6 734/2/6 736/2/6
f 725/2/6 726/2/6 741/2/6
f 741/2/6 726/2/6 742/2/6
f 727/2/6 728/2/6 743/2/6
f 743/2/6 728/2/6 744/2/6
f 729/2/6 730/2/6 745/2/6
f 745/2/6 730/2/6 746/2/6
f 731/2/6 732/2/6 747/2/6
f 747/2/6 732/2/6 748/2/6
f 737/3/6 738/3/6 749/3/6
f 749/3/6 738/3/6 750/3/6
f 739/1/6 740/1/6 751/1/6
f 751/1/6 740/1/6 752/1/6
f 753/2/6 754/2/6 757/2/6
f 757/2/6 754/2/6 758/2/6
f 755/2/6 756/2/6 759/2/6
f 759/2/6 756/2/6 760/2/6
f 761/5/6 762/5/6 763/5/6
f 763/5/6 762/5/6 764/5/6
f 761/5/6 763/5/6 765/5/6
f 764/5/6 762/5/6 766/5/6
f 761/5/6 765/5/6 767/5/6
f 765/5/6 766/5/6 767/5/6
f 766/5/6 762/5/6 768/5/6
f 767/5/6 766/5/6 768/5/6
f 769/7/6 770/7/6 771/7/6
f 771/7/6 770/7/6 772/7/6
f 769/7/6 771/7/6 773/7/6
f 772/7/6 770/7/6 774/7/6
f 769/7/6 773/7/6 775/7/6
f 773/7/6 774/7/6 775/7/6
f 774/7/6 770/7/6 776/7/6
f 775/7/6 774/7/6 776/7/6
f 777/7/6 778/7/6 779/7/6
f 779/7/6 778/7/6 780/7/6
f 777/7/6 779/7/6 781/7/6
f 780/7/6 778/7/6 782/7/6
f 777/7/6 781/7/6 783/7/6
f 781/7/6 782/7/6 783/7/6
f 782/7/6 778/7/6 784/7/6
f 783/7/6 782/7/6 784/7/6
f 785/7/6 786/7/6 787/7/6
f 787/7/6 786/7/6 788/7/6
f 788/7/6 786/7/6 789/7/6
f 789/7/6 786/7/6 790/7/6
f 791/7/6 792/7/6 793/7/6
f 793/7/6 792/7/6 794/7/6
f 795/2/6 796/2/6 797/2/6
f 797/2/6 796/2/6 798/2/6
f 799/7/6 800/7/6 801/7/6
f 801/7/6 800/7/6 802/7/6
f 803/7/6 804/7/6 805/7/6
f 805/7/6 804/7/6 806/7/6
f 807/7/6 808/7/6 809/7/6
f 809/7/6 808/7/6 810/7/6
